<svg xmlns="http://www.w3.org/2000/svg" width="20" height="20" viewBox="0 0 20 20" fill="none">
  <path fill-rule="evenodd" clip-rule="evenodd" d="M17.1389 3.80528C17.2008 3.7433 17.25 3.66971 17.2836 3.58872C17.3171 3.50774 17.3344 3.42094 17.3344 3.33328C17.3344 3.24562 17.3171 3.15882 17.2836 3.07784C17.25 2.99685 17.2008 2.92326 17.1389 2.86128C17.0769 2.7993 17.0033 2.75013 16.9223 2.71658C16.8413 2.68304 16.7545 2.66577 16.6669 2.66577C16.5792 2.66577 16.4924 2.68304 16.4114 2.71658C16.3304 2.75013 16.2568 2.7993 16.1949 2.86128L10.0002 9.05728L3.80552 2.86128C3.74354 2.7993 3.66995 2.75013 3.58897 2.71658C3.50798 2.68304 3.42118 2.66577 3.33352 2.66577C3.24587 2.66577 3.15907 2.68304 3.07808 2.71658C2.99709 2.75013 2.92351 2.7993 2.86152 2.86128C2.79954 2.92326 2.75037 2.99685 2.71683 3.07784C2.68328 3.15882 2.66602 3.24562 2.66602 3.33328C2.66602 3.42094 2.68328 3.50774 2.71683 3.58872C2.75037 3.66971 2.79954 3.7433 2.86152 3.80528L9.05752 9.99995L2.86152 16.1946C2.73634 16.3198 2.66602 16.4896 2.66602 16.6666C2.66602 16.8436 2.73634 17.0134 2.86152 17.1386C2.98671 17.2638 3.15649 17.3341 3.33352 17.3341C3.51056 17.3341 3.68034 17.2638 3.80552 17.1386L10.0002 10.9426L16.1949 17.1386C16.32 17.2638 16.4898 17.3341 16.6669 17.3341C16.8439 17.3341 17.0137 17.2638 17.1389 17.1386C17.264 17.0134 17.3344 16.8436 17.3344 16.6666C17.3344 16.4896 17.264 16.3198 17.1389 16.1946L10.9429 9.99995L17.1389 3.80528Z" fill="#BABABA"/>
</svg>