<svg xmlns="http://www.w3.org/2000/svg" width="170" height="170" viewBox="0 0 170 170" fill="none">
  <path d="M106.25 122.188C106.25 118.9 107.556 115.747 109.881 113.422C112.205 111.098 115.358 109.792 118.646 109.792H145.208V121.833C145.208 125.215 143.865 128.458 141.474 130.849C139.083 133.24 135.84 134.583 132.458 134.583H118.646C115.358 134.583 112.205 133.277 109.881 130.953C107.556 128.628 106.25 125.475 106.25 122.188ZM21.25 136.354C21.25 133.067 22.556 129.914 24.8807 127.589C27.2053 125.264 30.3583 123.958 33.6458 123.958H56.6667V136C56.6667 137.674 56.3369 139.332 55.6961 140.879C55.0554 142.426 54.1162 143.832 52.9323 145.016C51.7483 146.2 50.3428 147.139 48.7959 147.779C47.249 148.42 45.591 148.75 43.9167 148.75H33.6458C30.3583 148.75 27.2053 147.444 24.8807 145.119C22.556 142.795 21.25 139.642 21.25 136.354Z" stroke="#A6A6A6" stroke-width="7" stroke-linejoin="round"/>
  <path d="M56.6665 63.9058L145.208 42.9427M56.6665 134.583V35.4167L145.208 14.1667V119.326" stroke="#A6A6A6" stroke-width="7" stroke-linecap="round" stroke-linejoin="round"/>
</svg>